# xmcd
#
# Track frame offsets:
#	225
#	19745
#	30927
#	43730
#	59115
#	73977
#	89515
#	100127
#	118270
#	133412
#	149782
#	163605
#	181050
#	195802
#	211790
#	224737
#	235905
#	248455
#
# Disc length: 3563
#
# Revision: 5
# Processed by: cddbd v1.5.1PL0 Copyright (c) Steve Scherf et al.
# Submitted via: Grip 2.95
# Normalized: r3:TSWAP
#
DISCID=110de812
DTITLE=Various Artist - The Best Of Country Music Vol. 2 CD 2
DYEAR=1900
DGENRE=
TTITLE0=Lynn Anderson - Under The Boardwalk
TTITLE1=Roger Miller - King Of The Road
TTITLE2=Nancy Sinatra and Lee Hazlewood - Jackson
TTITLE3=Bellamy Brothers - I Need More Of You
TTITLE4=Olivia Newton-John - The Banks Of The Ohio
TTITLE5=Billy Ray Cyrus - Achy Breaky Heart
TTITLE6=Sue Thompson - Norman
TTITLE7=Clint Black - No Time To Kill
TTITLE8=John Brack - What About You?
TTITLE9=Kris Kristofferson - Mal Sacate
TTITLE10=Hank Williams Jr. - I Ain't Going Peacefully
TTITLE11=Amber - Zydeco Shoes
TTITLE12=Jeff Turner - Sunshine Girl
TTITLE13=Billie Jo Spears - Blanket On The Ground
TTITLE14=Lynn Anderson - Rose Garden
TTITLE15=Waylon Jennings - Big Mamou
TTITLE16=Johnny Cash - I Walk The Line
TTITLE17=Dolly Parton and Kenny Rogers - Islands In The Stream
EXTD=
EXTT0=
EXTT1=
EXTT2=
EXTT3=
EXTT4=
EXTT5=
EXTT6=
EXTT7=
EXTT8=
EXTT9=
EXTT10=
EXTT11=
EXTT12=
EXTT13=
EXTT14=
EXTT15=
EXTT16=
EXTT17=
PLAYORDER=
